# xmcd
#
# Track frame offsets:
#	150
#	11308
#	24243
#	37303
#	49144
#	63314
#	77143
#	90207
#	102557
#	118019
#	132463
#	145592
#	161025
#	175997
#	188637
#	203550
#	214029
#	227564
#	241430
#	254619
#
# Disc length: 3572 seconds
#
# Revision: 10
# Processed by: cddbd v1.5.2PL0 Copyright (c) Steve Scherf et al.
# Submitted via: audiograbber 1.83.01
#
DISCID=0f0df214
DTITLE=Django Reinhardt - Djangology 01
DYEAR=1940
DGENRE=Jazz
TTITLE0=Django Reinhardt - Exactly Like You  (McHugh - Fields)
TTITLE1=Django Reinhardt - Charleston  (Mack - Johnson)
TTITLE2=Django Reinhardt - You're Driving Me Crazy  (Donaldson)
TTITLE3=Django Reinhardt - Tears  (Grappelly - Reinhardt)
TTITLE4=Django Reinhardt - Solitude  (Ellington - Delange - Mills)
TTITLE5=Django Reinhardt - Hot Lips  (Busse - Lange - Davis)
TTITLE6=Django Reinhardt - Ain't Misbehavin  (Razaf - Waller - Brooks)
TTITLE7=Django Reinhardt - Rose Room  (Williams - Hickman)
TTITLE8=Django Reinhardt - Body And Soul  (Green - Hayman - Sour - Eyton)
TTITLE9=Django Reinhardt - When Day Is Done  (Katscher - De Sylva)
TTITLE10=Django Reinhardt - Runnin' Wild  (Wood - Gibbs - Grey)
TTITLE11=Django Reinhardt - Chicago  (Fischer)
TTITLE12=Django Reinhardt - Liebestraum N°3  (Liszt -  Arr. Reinhardt)
TTITLE13=Django Reinhardt - Miss Annabelle Lee  (Charge - Richman - Pollack)
TTITLE14=Django Reinhardt - A Little Love, A Little Kiss  (Silesu - Fyscher)
TTITLE15=Django Reinhardt - Mysteric Pacific  (Reinhardt - Grappelly)
TTITLE16=Django Reinhardt - In A Sentimental Mood  (Ellington - Kurtz - Mills)
TTITLE17=Django Reinhardt - The Sheik Of Araby  (Smith - Wheeler - Snyder)
TTITLE18=Django Reinhardt - Improvisation  (Reinhardt)
TTITLE19=Django Reinhardt - Parfum  (Reinhardt)
EXTD=
EXTT0=
EXTT1=
EXTT2=
EXTT3=
EXTT4=
EXTT5=
EXTT6=
EXTT7=
EXTT8=
EXTT9=
EXTT10=
EXTT11=
EXTT12=
EXTT13=
EXTT14=
EXTT15=
EXTT16=
EXTT17=
EXTT18=
EXTT19=
PLAYORDER=
